<mxfile host="Electron" agent="Mozilla/5.0 (Macintosh; Intel Mac OS X 10_15_7) AppleWebKit/537.36 (KHTML, like Gecko) draw.io/28.0.6 Chrome/138.0.7204.100 Electron/37.2.3 Safari/537.36" version="28.0.6">
  <diagram name="Page-1" id="xCdlMddHKtZS6q9IMVEG">
    <mxGraphModel dx="1783" dy="1140" grid="1" gridSize="10" guides="1" tooltips="1" connect="1" arrows="1" fold="1" page="1" pageScale="1" pageWidth="2339" pageHeight="3300" math="0" shadow="0">
      <root>
        <mxCell id="0" />
        <mxCell id="1" parent="0" />
        <mxCell id="qVYU6EeJ7ByzWyDFsHAZ-2" value="&lt;span style=&quot;font-size: 18px;&quot;&gt;Identify Partial&lt;/span&gt;" style="rounded=1;whiteSpace=wrap;html=1;" parent="1" vertex="1">
          <mxGeometry x="50" y="210" width="90" height="50" as="geometry" />
        </mxCell>
        <mxCell id="uGWCk9tvpewRrLNEhI1z-1" style="edgeStyle=orthogonalEdgeStyle;rounded=0;orthogonalLoop=1;jettySize=auto;html=1;entryX=0;entryY=0.5;entryDx=0;entryDy=0;strokeWidth=2;" edge="1" parent="1" source="qVYU6EeJ7ByzWyDFsHAZ-3" target="qVYU6EeJ7ByzWyDFsHAZ-4">
          <mxGeometry relative="1" as="geometry" />
        </mxCell>
        <mxCell id="qVYU6EeJ7ByzWyDFsHAZ-3" value="&lt;span style=&quot;font-size: 18px;&quot;&gt;Explain Policy&lt;/span&gt;" style="rounded=1;whiteSpace=wrap;html=1;" parent="1" vertex="1">
          <mxGeometry x="760" y="210" width="90" height="50" as="geometry" />
        </mxCell>
        <mxCell id="uGWCk9tvpewRrLNEhI1z-4" style="edgeStyle=orthogonalEdgeStyle;rounded=0;orthogonalLoop=1;jettySize=auto;html=1;entryX=0;entryY=0.5;entryDx=0;entryDy=0;strokeWidth=2;" edge="1" parent="1" source="qVYU6EeJ7ByzWyDFsHAZ-4" target="qVYU6EeJ7ByzWyDFsHAZ-5">
          <mxGeometry relative="1" as="geometry" />
        </mxCell>
        <mxCell id="uGWCk9tvpewRrLNEhI1z-66" style="edgeStyle=orthogonalEdgeStyle;rounded=0;orthogonalLoop=1;jettySize=auto;html=1;entryX=0.5;entryY=0;entryDx=0;entryDy=0;strokeWidth=2;" edge="1" parent="1" source="qVYU6EeJ7ByzWyDFsHAZ-4" target="qVYU6EeJ7ByzWyDFsHAZ-8">
          <mxGeometry relative="1" as="geometry">
            <Array as="points">
              <mxPoint x="975" y="310" />
              <mxPoint x="1145" y="310" />
            </Array>
          </mxGeometry>
        </mxCell>
        <mxCell id="qVYU6EeJ7ByzWyDFsHAZ-4" value="&lt;span style=&quot;font-size: 18px;&quot;&gt;Confirm Cancel&lt;/span&gt;" style="rounded=1;whiteSpace=wrap;html=1;" parent="1" vertex="1">
          <mxGeometry x="930" y="210" width="90" height="50" as="geometry" />
        </mxCell>
        <mxCell id="uGWCk9tvpewRrLNEhI1z-5" style="edgeStyle=orthogonalEdgeStyle;rounded=0;orthogonalLoop=1;jettySize=auto;html=1;entryX=0.5;entryY=0;entryDx=0;entryDy=0;strokeWidth=2;" edge="1" parent="1" source="qVYU6EeJ7ByzWyDFsHAZ-5" target="qVYU6EeJ7ByzWyDFsHAZ-9">
          <mxGeometry relative="1" as="geometry" />
        </mxCell>
        <mxCell id="qVYU6EeJ7ByzWyDFsHAZ-5" value="&lt;span style=&quot;font-size: 18px;&quot;&gt;Process Cancel&lt;/span&gt;" style="rounded=1;whiteSpace=wrap;html=1;" parent="1" vertex="1">
          <mxGeometry x="1100" y="210" width="90" height="50" as="geometry" />
        </mxCell>
        <mxCell id="qVYU6EeJ7ByzWyDFsHAZ-17" style="edgeStyle=orthogonalEdgeStyle;rounded=0;orthogonalLoop=1;jettySize=auto;html=1;entryX=0;entryY=0.5;entryDx=0;entryDy=0;strokeWidth=2;" parent="1" source="qVYU6EeJ7ByzWyDFsHAZ-6" target="qVYU6EeJ7ByzWyDFsHAZ-7" edge="1">
          <mxGeometry relative="1" as="geometry" />
        </mxCell>
        <mxCell id="uGWCk9tvpewRrLNEhI1z-3" style="edgeStyle=orthogonalEdgeStyle;rounded=0;orthogonalLoop=1;jettySize=auto;html=1;entryX=0.5;entryY=1;entryDx=0;entryDy=0;strokeWidth=2;" edge="1" parent="1" source="qVYU6EeJ7ByzWyDFsHAZ-6" target="qVYU6EeJ7ByzWyDFsHAZ-3">
          <mxGeometry relative="1" as="geometry" />
        </mxCell>
        <mxCell id="uGWCk9tvpewRrLNEhI1z-64" style="edgeStyle=orthogonalEdgeStyle;rounded=0;orthogonalLoop=1;jettySize=auto;html=1;entryX=0.5;entryY=1;entryDx=0;entryDy=0;strokeWidth=2;" edge="1" parent="1" source="qVYU6EeJ7ByzWyDFsHAZ-6" target="qVYU6EeJ7ByzWyDFsHAZ-8">
          <mxGeometry relative="1" as="geometry">
            <Array as="points">
              <mxPoint x="805" y="440" />
              <mxPoint x="1145" y="440" />
            </Array>
          </mxGeometry>
        </mxCell>
        <mxCell id="qVYU6EeJ7ByzWyDFsHAZ-6" value="&lt;span style=&quot;font-size: 18px;&quot;&gt;Confirm Leg&lt;/span&gt;" style="rounded=1;whiteSpace=wrap;html=1;" parent="1" vertex="1">
          <mxGeometry x="760" y="370" width="90" height="50" as="geometry" />
        </mxCell>
        <mxCell id="qVYU6EeJ7ByzWyDFsHAZ-19" style="edgeStyle=orthogonalEdgeStyle;rounded=0;orthogonalLoop=1;jettySize=auto;html=1;entryX=0;entryY=0.5;entryDx=0;entryDy=0;strokeWidth=2;" parent="1" source="qVYU6EeJ7ByzWyDFsHAZ-7" target="qVYU6EeJ7ByzWyDFsHAZ-8" edge="1">
          <mxGeometry relative="1" as="geometry" />
        </mxCell>
        <mxCell id="qVYU6EeJ7ByzWyDFsHAZ-7" value="&lt;span style=&quot;font-size: 18px;&quot;&gt;Agent&lt;/span&gt;" style="rounded=1;whiteSpace=wrap;html=1;" parent="1" vertex="1">
          <mxGeometry x="930" y="370" width="90" height="50" as="geometry" />
        </mxCell>
        <mxCell id="uGWCk9tvpewRrLNEhI1z-7" style="edgeStyle=orthogonalEdgeStyle;rounded=0;orthogonalLoop=1;jettySize=auto;html=1;entryX=0.5;entryY=1;entryDx=0;entryDy=0;startArrow=classic;startFill=1;endArrow=none;endFill=0;strokeWidth=2;" edge="1" parent="1" source="qVYU6EeJ7ByzWyDFsHAZ-8" target="qVYU6EeJ7ByzWyDFsHAZ-9">
          <mxGeometry relative="1" as="geometry" />
        </mxCell>
        <mxCell id="qVYU6EeJ7ByzWyDFsHAZ-8" value="&lt;span style=&quot;font-size: 18px;&quot;&gt;Exit&lt;/span&gt;" style="rounded=1;whiteSpace=wrap;html=1;" parent="1" vertex="1">
          <mxGeometry x="1100" y="370" width="90" height="50" as="geometry" />
        </mxCell>
        <mxCell id="qVYU6EeJ7ByzWyDFsHAZ-9" value="&lt;span style=&quot;font-size: 18px;&quot;&gt;Show CAST&lt;/span&gt;" style="rounded=1;whiteSpace=wrap;html=1;" parent="1" vertex="1">
          <mxGeometry x="1240" y="290" width="90" height="50" as="geometry" />
        </mxCell>
        <mxCell id="uGWCk9tvpewRrLNEhI1z-67" style="edgeStyle=orthogonalEdgeStyle;rounded=0;orthogonalLoop=1;jettySize=auto;html=1;entryX=0.75;entryY=1;entryDx=0;entryDy=0;strokeWidth=2;" edge="1" parent="1" source="uGWCk9tvpewRrLNEhI1z-50" target="qVYU6EeJ7ByzWyDFsHAZ-8">
          <mxGeometry relative="1" as="geometry">
            <Array as="points">
              <mxPoint x="315" y="450" />
              <mxPoint x="1168" y="450" />
            </Array>
          </mxGeometry>
        </mxCell>
        <mxCell id="uGWCk9tvpewRrLNEhI1z-50" value="&lt;font style=&quot;font-size: 18px;&quot;&gt;cancel_not_for_all&lt;/font&gt;" style="strokeWidth=2;html=1;shape=mxgraph.flowchart.decision;whiteSpace=wrap;" vertex="1" parent="1">
          <mxGeometry x="220" y="185" width="190" height="100" as="geometry" />
        </mxCell>
        <mxCell id="uGWCk9tvpewRrLNEhI1z-54" style="edgeStyle=orthogonalEdgeStyle;rounded=0;orthogonalLoop=1;jettySize=auto;html=1;entryX=0;entryY=0.5;entryDx=0;entryDy=0;strokeWidth=2;" edge="1" parent="1" source="uGWCk9tvpewRrLNEhI1z-51" target="qVYU6EeJ7ByzWyDFsHAZ-3">
          <mxGeometry relative="1" as="geometry" />
        </mxCell>
        <mxCell id="uGWCk9tvpewRrLNEhI1z-61" style="edgeStyle=orthogonalEdgeStyle;rounded=0;orthogonalLoop=1;jettySize=auto;html=1;entryX=0;entryY=0.5;entryDx=0;entryDy=0;strokeWidth=2;" edge="1" parent="1" source="uGWCk9tvpewRrLNEhI1z-51" target="qVYU6EeJ7ByzWyDFsHAZ-6">
          <mxGeometry relative="1" as="geometry">
            <Array as="points">
              <mxPoint x="585" y="395" />
            </Array>
          </mxGeometry>
        </mxCell>
        <mxCell id="uGWCk9tvpewRrLNEhI1z-51" value="&lt;span style=&quot;font-size: 18px;&quot;&gt;partial_or_full&lt;/span&gt;" style="strokeWidth=2;html=1;shape=mxgraph.flowchart.decision;whiteSpace=wrap;" vertex="1" parent="1">
          <mxGeometry x="490" y="185" width="190" height="100" as="geometry" />
        </mxCell>
        <mxCell id="uGWCk9tvpewRrLNEhI1z-52" style="edgeStyle=orthogonalEdgeStyle;rounded=0;orthogonalLoop=1;jettySize=auto;html=1;entryX=0;entryY=0.5;entryDx=0;entryDy=0;entryPerimeter=0;strokeWidth=2;" edge="1" parent="1" source="qVYU6EeJ7ByzWyDFsHAZ-2" target="uGWCk9tvpewRrLNEhI1z-50">
          <mxGeometry relative="1" as="geometry" />
        </mxCell>
        <mxCell id="uGWCk9tvpewRrLNEhI1z-53" style="edgeStyle=orthogonalEdgeStyle;rounded=0;orthogonalLoop=1;jettySize=auto;html=1;entryX=0;entryY=0.5;entryDx=0;entryDy=0;entryPerimeter=0;strokeWidth=2;" edge="1" parent="1" source="uGWCk9tvpewRrLNEhI1z-50" target="uGWCk9tvpewRrLNEhI1z-51">
          <mxGeometry relative="1" as="geometry" />
        </mxCell>
        <mxCell id="uGWCk9tvpewRrLNEhI1z-56" value="&lt;font style=&quot;font-size: 18px;&quot;&gt;True&lt;/font&gt;" style="text;html=1;align=center;verticalAlign=middle;whiteSpace=wrap;rounded=0;" vertex="1" parent="1">
          <mxGeometry x="250" y="290" width="60" height="30" as="geometry" />
        </mxCell>
        <mxCell id="uGWCk9tvpewRrLNEhI1z-59" value="&lt;font style=&quot;font-size: 18px;&quot;&gt;False&lt;/font&gt;" style="text;html=1;align=center;verticalAlign=middle;whiteSpace=wrap;rounded=0;" vertex="1" parent="1">
          <mxGeometry x="410" y="200" width="60" height="30" as="geometry" />
        </mxCell>
        <mxCell id="uGWCk9tvpewRrLNEhI1z-60" value="&lt;font style=&quot;font-size: 18px;&quot;&gt;FULL&lt;/font&gt;" style="text;html=1;align=center;verticalAlign=middle;whiteSpace=wrap;rounded=0;" vertex="1" parent="1">
          <mxGeometry x="676" y="200" width="60" height="30" as="geometry" />
        </mxCell>
        <mxCell id="uGWCk9tvpewRrLNEhI1z-62" value="&lt;span style=&quot;font-size: 18px;&quot;&gt;PARTIAL&lt;/span&gt;" style="text;html=1;align=center;verticalAlign=middle;whiteSpace=wrap;rounded=0;" vertex="1" parent="1">
          <mxGeometry x="506" y="290" width="60" height="30" as="geometry" />
        </mxCell>
        <mxCell id="uGWCk9tvpewRrLNEhI1z-63" value="&lt;font style=&quot;font-size: 18px;&quot;&gt;SUCCESS&lt;/font&gt;" style="text;html=1;align=center;verticalAlign=middle;whiteSpace=wrap;rounded=0;" vertex="1" parent="1">
          <mxGeometry x="1210" y="360" width="60" height="30" as="geometry" />
        </mxCell>
        <mxCell id="uGWCk9tvpewRrLNEhI1z-68" value="&lt;span style=&quot;font-size: 18px;&quot;&gt;Identify Partial&lt;/span&gt;" style="rounded=1;whiteSpace=wrap;html=1;" vertex="1" parent="1">
          <mxGeometry x="530" y="665" width="90" height="50" as="geometry" />
        </mxCell>
        <mxCell id="uGWCk9tvpewRrLNEhI1z-69" style="edgeStyle=orthogonalEdgeStyle;rounded=0;orthogonalLoop=1;jettySize=auto;html=1;entryX=0;entryY=0.5;entryDx=0;entryDy=0;strokeWidth=2;" edge="1" parent="1" source="uGWCk9tvpewRrLNEhI1z-70" target="uGWCk9tvpewRrLNEhI1z-73">
          <mxGeometry relative="1" as="geometry" />
        </mxCell>
        <mxCell id="uGWCk9tvpewRrLNEhI1z-70" value="&lt;span style=&quot;font-size: 18px;&quot;&gt;Explain Policy&lt;/span&gt;" style="rounded=1;whiteSpace=wrap;html=1;" vertex="1" parent="1">
          <mxGeometry x="1240" y="665" width="90" height="50" as="geometry" />
        </mxCell>
        <mxCell id="uGWCk9tvpewRrLNEhI1z-71" style="edgeStyle=orthogonalEdgeStyle;rounded=0;orthogonalLoop=1;jettySize=auto;html=1;entryX=0;entryY=0.5;entryDx=0;entryDy=0;strokeWidth=2;" edge="1" parent="1" source="uGWCk9tvpewRrLNEhI1z-73" target="uGWCk9tvpewRrLNEhI1z-75">
          <mxGeometry relative="1" as="geometry" />
        </mxCell>
        <mxCell id="uGWCk9tvpewRrLNEhI1z-72" style="edgeStyle=orthogonalEdgeStyle;rounded=0;orthogonalLoop=1;jettySize=auto;html=1;entryX=0.5;entryY=0;entryDx=0;entryDy=0;strokeWidth=2;" edge="1" parent="1" source="uGWCk9tvpewRrLNEhI1z-73" target="uGWCk9tvpewRrLNEhI1z-83">
          <mxGeometry relative="1" as="geometry">
            <Array as="points">
              <mxPoint x="1455" y="765" />
              <mxPoint x="1625" y="765" />
            </Array>
          </mxGeometry>
        </mxCell>
        <mxCell id="uGWCk9tvpewRrLNEhI1z-73" value="&lt;span style=&quot;font-size: 18px;&quot;&gt;Confirm Cancel&lt;/span&gt;" style="rounded=1;whiteSpace=wrap;html=1;" vertex="1" parent="1">
          <mxGeometry x="1410" y="665" width="90" height="50" as="geometry" />
        </mxCell>
        <mxCell id="uGWCk9tvpewRrLNEhI1z-74" style="edgeStyle=orthogonalEdgeStyle;rounded=0;orthogonalLoop=1;jettySize=auto;html=1;entryX=0.5;entryY=0;entryDx=0;entryDy=0;strokeWidth=2;" edge="1" parent="1" source="uGWCk9tvpewRrLNEhI1z-75" target="uGWCk9tvpewRrLNEhI1z-84">
          <mxGeometry relative="1" as="geometry" />
        </mxCell>
        <mxCell id="uGWCk9tvpewRrLNEhI1z-75" value="&lt;span style=&quot;font-size: 18px;&quot;&gt;Process Cancel&lt;/span&gt;" style="rounded=1;whiteSpace=wrap;html=1;" vertex="1" parent="1">
          <mxGeometry x="1580" y="665" width="90" height="50" as="geometry" />
        </mxCell>
        <mxCell id="uGWCk9tvpewRrLNEhI1z-76" style="edgeStyle=orthogonalEdgeStyle;rounded=0;orthogonalLoop=1;jettySize=auto;html=1;entryX=0;entryY=0.5;entryDx=0;entryDy=0;strokeWidth=2;" edge="1" parent="1" source="uGWCk9tvpewRrLNEhI1z-79" target="uGWCk9tvpewRrLNEhI1z-81">
          <mxGeometry relative="1" as="geometry" />
        </mxCell>
        <mxCell id="uGWCk9tvpewRrLNEhI1z-77" style="edgeStyle=orthogonalEdgeStyle;rounded=0;orthogonalLoop=1;jettySize=auto;html=1;entryX=0.5;entryY=1;entryDx=0;entryDy=0;strokeWidth=2;" edge="1" parent="1" source="uGWCk9tvpewRrLNEhI1z-79" target="uGWCk9tvpewRrLNEhI1z-70">
          <mxGeometry relative="1" as="geometry" />
        </mxCell>
        <mxCell id="uGWCk9tvpewRrLNEhI1z-78" style="edgeStyle=orthogonalEdgeStyle;rounded=0;orthogonalLoop=1;jettySize=auto;html=1;entryX=0.5;entryY=1;entryDx=0;entryDy=0;strokeWidth=2;" edge="1" parent="1" source="uGWCk9tvpewRrLNEhI1z-79" target="uGWCk9tvpewRrLNEhI1z-83">
          <mxGeometry relative="1" as="geometry">
            <Array as="points">
              <mxPoint x="1285" y="895" />
              <mxPoint x="1625" y="895" />
            </Array>
          </mxGeometry>
        </mxCell>
        <mxCell id="uGWCk9tvpewRrLNEhI1z-79" value="&lt;span style=&quot;font-size: 18px;&quot;&gt;Confirm Leg&lt;/span&gt;" style="rounded=1;whiteSpace=wrap;html=1;" vertex="1" parent="1">
          <mxGeometry x="1240" y="825" width="90" height="50" as="geometry" />
        </mxCell>
        <mxCell id="uGWCk9tvpewRrLNEhI1z-80" style="edgeStyle=orthogonalEdgeStyle;rounded=0;orthogonalLoop=1;jettySize=auto;html=1;entryX=0;entryY=0.5;entryDx=0;entryDy=0;strokeWidth=2;" edge="1" parent="1" source="uGWCk9tvpewRrLNEhI1z-81" target="uGWCk9tvpewRrLNEhI1z-83">
          <mxGeometry relative="1" as="geometry" />
        </mxCell>
        <mxCell id="uGWCk9tvpewRrLNEhI1z-81" value="&lt;span style=&quot;font-size: 18px;&quot;&gt;Agent&lt;/span&gt;" style="rounded=1;whiteSpace=wrap;html=1;" vertex="1" parent="1">
          <mxGeometry x="1410" y="825" width="90" height="50" as="geometry" />
        </mxCell>
        <mxCell id="uGWCk9tvpewRrLNEhI1z-82" style="edgeStyle=orthogonalEdgeStyle;rounded=0;orthogonalLoop=1;jettySize=auto;html=1;entryX=0.5;entryY=1;entryDx=0;entryDy=0;startArrow=classic;startFill=1;endArrow=none;endFill=0;strokeWidth=2;" edge="1" parent="1" source="uGWCk9tvpewRrLNEhI1z-83" target="uGWCk9tvpewRrLNEhI1z-84">
          <mxGeometry relative="1" as="geometry" />
        </mxCell>
        <mxCell id="uGWCk9tvpewRrLNEhI1z-83" value="&lt;span style=&quot;font-size: 18px;&quot;&gt;Exit&lt;/span&gt;" style="rounded=1;whiteSpace=wrap;html=1;" vertex="1" parent="1">
          <mxGeometry x="1580" y="825" width="90" height="50" as="geometry" />
        </mxCell>
        <mxCell id="uGWCk9tvpewRrLNEhI1z-84" value="&lt;span style=&quot;font-size: 18px;&quot;&gt;Show CAST&lt;/span&gt;" style="rounded=1;whiteSpace=wrap;html=1;" vertex="1" parent="1">
          <mxGeometry x="1720" y="745" width="90" height="50" as="geometry" />
        </mxCell>
        <mxCell id="uGWCk9tvpewRrLNEhI1z-85" style="edgeStyle=orthogonalEdgeStyle;rounded=0;orthogonalLoop=1;jettySize=auto;html=1;entryX=0.75;entryY=1;entryDx=0;entryDy=0;strokeWidth=2;" edge="1" parent="1" source="uGWCk9tvpewRrLNEhI1z-86" target="uGWCk9tvpewRrLNEhI1z-83">
          <mxGeometry relative="1" as="geometry">
            <Array as="points">
              <mxPoint x="795" y="905" />
              <mxPoint x="1648" y="905" />
            </Array>
          </mxGeometry>
        </mxCell>
        <mxCell id="uGWCk9tvpewRrLNEhI1z-86" value="&lt;font style=&quot;font-size: 18px;&quot;&gt;cancel_not_for_all&lt;/font&gt;" style="strokeWidth=2;html=1;shape=mxgraph.flowchart.decision;whiteSpace=wrap;" vertex="1" parent="1">
          <mxGeometry x="700" y="640" width="190" height="100" as="geometry" />
        </mxCell>
        <mxCell id="uGWCk9tvpewRrLNEhI1z-87" style="edgeStyle=orthogonalEdgeStyle;rounded=0;orthogonalLoop=1;jettySize=auto;html=1;entryX=0;entryY=0.5;entryDx=0;entryDy=0;strokeWidth=2;" edge="1" parent="1" source="uGWCk9tvpewRrLNEhI1z-89" target="uGWCk9tvpewRrLNEhI1z-70">
          <mxGeometry relative="1" as="geometry" />
        </mxCell>
        <mxCell id="uGWCk9tvpewRrLNEhI1z-88" style="edgeStyle=orthogonalEdgeStyle;rounded=0;orthogonalLoop=1;jettySize=auto;html=1;entryX=0;entryY=0.5;entryDx=0;entryDy=0;strokeWidth=2;" edge="1" parent="1" source="uGWCk9tvpewRrLNEhI1z-89" target="uGWCk9tvpewRrLNEhI1z-79">
          <mxGeometry relative="1" as="geometry">
            <Array as="points">
              <mxPoint x="1065" y="850" />
            </Array>
          </mxGeometry>
        </mxCell>
        <mxCell id="uGWCk9tvpewRrLNEhI1z-89" value="&lt;span style=&quot;font-size: 18px;&quot;&gt;partial_or_full&lt;/span&gt;" style="strokeWidth=2;html=1;shape=mxgraph.flowchart.decision;whiteSpace=wrap;" vertex="1" parent="1">
          <mxGeometry x="970" y="640" width="190" height="100" as="geometry" />
        </mxCell>
        <mxCell id="uGWCk9tvpewRrLNEhI1z-90" style="edgeStyle=orthogonalEdgeStyle;rounded=0;orthogonalLoop=1;jettySize=auto;html=1;entryX=0;entryY=0.5;entryDx=0;entryDy=0;entryPerimeter=0;strokeWidth=2;" edge="1" parent="1" source="uGWCk9tvpewRrLNEhI1z-68" target="uGWCk9tvpewRrLNEhI1z-86">
          <mxGeometry relative="1" as="geometry" />
        </mxCell>
        <mxCell id="uGWCk9tvpewRrLNEhI1z-91" style="edgeStyle=orthogonalEdgeStyle;rounded=0;orthogonalLoop=1;jettySize=auto;html=1;entryX=0;entryY=0.5;entryDx=0;entryDy=0;entryPerimeter=0;strokeWidth=2;" edge="1" parent="1" source="uGWCk9tvpewRrLNEhI1z-86" target="uGWCk9tvpewRrLNEhI1z-89">
          <mxGeometry relative="1" as="geometry" />
        </mxCell>
        <mxCell id="uGWCk9tvpewRrLNEhI1z-92" value="&lt;font style=&quot;font-size: 18px;&quot;&gt;True&lt;/font&gt;" style="text;html=1;align=center;verticalAlign=middle;whiteSpace=wrap;rounded=0;" vertex="1" parent="1">
          <mxGeometry x="730" y="745" width="60" height="30" as="geometry" />
        </mxCell>
        <mxCell id="uGWCk9tvpewRrLNEhI1z-93" value="&lt;font style=&quot;font-size: 18px;&quot;&gt;False&lt;/font&gt;" style="text;html=1;align=center;verticalAlign=middle;whiteSpace=wrap;rounded=0;" vertex="1" parent="1">
          <mxGeometry x="890" y="655" width="60" height="30" as="geometry" />
        </mxCell>
        <mxCell id="uGWCk9tvpewRrLNEhI1z-94" value="&lt;font style=&quot;font-size: 18px;&quot;&gt;FULL&lt;/font&gt;" style="text;html=1;align=center;verticalAlign=middle;whiteSpace=wrap;rounded=0;" vertex="1" parent="1">
          <mxGeometry x="1156" y="655" width="60" height="30" as="geometry" />
        </mxCell>
        <mxCell id="uGWCk9tvpewRrLNEhI1z-95" value="&lt;span style=&quot;font-size: 18px;&quot;&gt;PARTIAL&lt;/span&gt;" style="text;html=1;align=center;verticalAlign=middle;whiteSpace=wrap;rounded=0;" vertex="1" parent="1">
          <mxGeometry x="986" y="745" width="60" height="30" as="geometry" />
        </mxCell>
        <mxCell id="uGWCk9tvpewRrLNEhI1z-96" value="&lt;font style=&quot;font-size: 18px;&quot;&gt;SUCCESS&lt;/font&gt;" style="text;html=1;align=center;verticalAlign=middle;whiteSpace=wrap;rounded=0;" vertex="1" parent="1">
          <mxGeometry x="1690" y="815" width="60" height="30" as="geometry" />
        </mxCell>
        <mxCell id="uGWCk9tvpewRrLNEhI1z-97" value="&lt;span style=&quot;font-size: 18px;&quot;&gt;chat_history&lt;/span&gt;" style="text;html=1;align=center;verticalAlign=middle;whiteSpace=wrap;rounded=0;" vertex="1" parent="1">
          <mxGeometry x="320" y="692.5" width="110" height="30" as="geometry" />
        </mxCell>
        <mxCell id="uGWCk9tvpewRrLNEhI1z-100" value="&lt;span style=&quot;font-size: 18px;&quot;&gt;flight_booking_legs&lt;/span&gt;" style="text;html=1;align=center;verticalAlign=middle;whiteSpace=wrap;rounded=0;" vertex="1" parent="1">
          <mxGeometry x="290" y="657.5" width="170" height="30" as="geometry" />
        </mxCell>
        <mxCell id="uGWCk9tvpewRrLNEhI1z-106" style="edgeStyle=orthogonalEdgeStyle;rounded=0;orthogonalLoop=1;jettySize=auto;html=1;strokeWidth=2;" edge="1" parent="1" source="uGWCk9tvpewRrLNEhI1z-105" target="uGWCk9tvpewRrLNEhI1z-68">
          <mxGeometry relative="1" as="geometry" />
        </mxCell>
        <mxCell id="uGWCk9tvpewRrLNEhI1z-105" value="" style="rounded=1;whiteSpace=wrap;html=1;opacity=0;" vertex="1" parent="1">
          <mxGeometry x="285" y="642.5" width="180" height="95" as="geometry" />
        </mxCell>
        <mxCell id="uGWCk9tvpewRrLNEhI1z-107" value="&lt;span style=&quot;font-size: 18px;&quot;&gt;Identify Partial&lt;/span&gt;" style="rounded=1;whiteSpace=wrap;html=1;fillColor=#d5e8d4;strokeColor=#82b366;" vertex="1" parent="1">
          <mxGeometry x="565" y="1165" width="90" height="50" as="geometry" />
        </mxCell>
        <mxCell id="uGWCk9tvpewRrLNEhI1z-108" style="edgeStyle=orthogonalEdgeStyle;rounded=0;orthogonalLoop=1;jettySize=auto;html=1;entryX=0;entryY=0.5;entryDx=0;entryDy=0;strokeWidth=2;fillColor=#d5e8d4;strokeColor=#82b366;" edge="1" parent="1" source="uGWCk9tvpewRrLNEhI1z-109" target="uGWCk9tvpewRrLNEhI1z-112">
          <mxGeometry relative="1" as="geometry" />
        </mxCell>
        <mxCell id="uGWCk9tvpewRrLNEhI1z-109" value="&lt;span style=&quot;font-size: 18px;&quot;&gt;Explain Policy&lt;/span&gt;" style="rounded=1;whiteSpace=wrap;html=1;fillColor=#d5e8d4;strokeColor=#82b366;" vertex="1" parent="1">
          <mxGeometry x="1275" y="1165" width="90" height="50" as="geometry" />
        </mxCell>
        <mxCell id="uGWCk9tvpewRrLNEhI1z-110" style="edgeStyle=orthogonalEdgeStyle;rounded=0;orthogonalLoop=1;jettySize=auto;html=1;entryX=0;entryY=0.5;entryDx=0;entryDy=0;strokeWidth=2;fillColor=#d5e8d4;strokeColor=#82b366;" edge="1" parent="1" source="uGWCk9tvpewRrLNEhI1z-112" target="uGWCk9tvpewRrLNEhI1z-114">
          <mxGeometry relative="1" as="geometry" />
        </mxCell>
        <mxCell id="uGWCk9tvpewRrLNEhI1z-111" style="edgeStyle=orthogonalEdgeStyle;rounded=0;orthogonalLoop=1;jettySize=auto;html=1;entryX=0.5;entryY=0;entryDx=0;entryDy=0;strokeWidth=2;" edge="1" parent="1" source="uGWCk9tvpewRrLNEhI1z-112" target="uGWCk9tvpewRrLNEhI1z-122">
          <mxGeometry relative="1" as="geometry">
            <Array as="points">
              <mxPoint x="1490" y="1265" />
              <mxPoint x="1660" y="1265" />
            </Array>
          </mxGeometry>
        </mxCell>
        <mxCell id="uGWCk9tvpewRrLNEhI1z-112" value="&lt;span style=&quot;font-size: 18px;&quot;&gt;Confirm Cancel&lt;/span&gt;" style="rounded=1;whiteSpace=wrap;html=1;fillColor=#d5e8d4;strokeColor=#82b366;" vertex="1" parent="1">
          <mxGeometry x="1445" y="1165" width="90" height="50" as="geometry" />
        </mxCell>
        <mxCell id="uGWCk9tvpewRrLNEhI1z-113" style="edgeStyle=orthogonalEdgeStyle;rounded=0;orthogonalLoop=1;jettySize=auto;html=1;entryX=0.5;entryY=0;entryDx=0;entryDy=0;strokeWidth=2;fillColor=#d5e8d4;strokeColor=#82b366;" edge="1" parent="1" source="uGWCk9tvpewRrLNEhI1z-114" target="uGWCk9tvpewRrLNEhI1z-123">
          <mxGeometry relative="1" as="geometry" />
        </mxCell>
        <mxCell id="uGWCk9tvpewRrLNEhI1z-114" value="&lt;span style=&quot;font-size: 18px;&quot;&gt;Process Cancel&lt;/span&gt;" style="rounded=1;whiteSpace=wrap;html=1;fillColor=#d5e8d4;strokeColor=#82b366;" vertex="1" parent="1">
          <mxGeometry x="1615" y="1165" width="90" height="50" as="geometry" />
        </mxCell>
        <mxCell id="uGWCk9tvpewRrLNEhI1z-115" style="edgeStyle=orthogonalEdgeStyle;rounded=0;orthogonalLoop=1;jettySize=auto;html=1;entryX=0;entryY=0.5;entryDx=0;entryDy=0;strokeWidth=2;" edge="1" parent="1" source="uGWCk9tvpewRrLNEhI1z-118" target="uGWCk9tvpewRrLNEhI1z-120">
          <mxGeometry relative="1" as="geometry" />
        </mxCell>
        <mxCell id="uGWCk9tvpewRrLNEhI1z-116" style="edgeStyle=orthogonalEdgeStyle;rounded=0;orthogonalLoop=1;jettySize=auto;html=1;entryX=0.5;entryY=1;entryDx=0;entryDy=0;strokeWidth=2;" edge="1" parent="1" source="uGWCk9tvpewRrLNEhI1z-118" target="uGWCk9tvpewRrLNEhI1z-109">
          <mxGeometry relative="1" as="geometry" />
        </mxCell>
        <mxCell id="uGWCk9tvpewRrLNEhI1z-117" style="edgeStyle=orthogonalEdgeStyle;rounded=0;orthogonalLoop=1;jettySize=auto;html=1;entryX=0.5;entryY=1;entryDx=0;entryDy=0;strokeWidth=2;" edge="1" parent="1" source="uGWCk9tvpewRrLNEhI1z-118" target="uGWCk9tvpewRrLNEhI1z-122">
          <mxGeometry relative="1" as="geometry">
            <Array as="points">
              <mxPoint x="1320" y="1395" />
              <mxPoint x="1660" y="1395" />
            </Array>
          </mxGeometry>
        </mxCell>
        <mxCell id="uGWCk9tvpewRrLNEhI1z-118" value="&lt;span style=&quot;font-size: 18px;&quot;&gt;Confirm Leg&lt;/span&gt;" style="rounded=1;whiteSpace=wrap;html=1;" vertex="1" parent="1">
          <mxGeometry x="1275" y="1325" width="90" height="50" as="geometry" />
        </mxCell>
        <mxCell id="uGWCk9tvpewRrLNEhI1z-119" style="edgeStyle=orthogonalEdgeStyle;rounded=0;orthogonalLoop=1;jettySize=auto;html=1;entryX=0;entryY=0.5;entryDx=0;entryDy=0;strokeWidth=2;" edge="1" parent="1" source="uGWCk9tvpewRrLNEhI1z-120" target="uGWCk9tvpewRrLNEhI1z-122">
          <mxGeometry relative="1" as="geometry" />
        </mxCell>
        <mxCell id="uGWCk9tvpewRrLNEhI1z-120" value="&lt;span style=&quot;font-size: 18px;&quot;&gt;Agent&lt;/span&gt;" style="rounded=1;whiteSpace=wrap;html=1;" vertex="1" parent="1">
          <mxGeometry x="1445" y="1325" width="90" height="50" as="geometry" />
        </mxCell>
        <mxCell id="uGWCk9tvpewRrLNEhI1z-121" style="edgeStyle=orthogonalEdgeStyle;rounded=0;orthogonalLoop=1;jettySize=auto;html=1;entryX=0.5;entryY=1;entryDx=0;entryDy=0;startArrow=classic;startFill=1;endArrow=none;endFill=0;strokeWidth=2;fillColor=#d5e8d4;strokeColor=#82b366;" edge="1" parent="1" source="uGWCk9tvpewRrLNEhI1z-122" target="uGWCk9tvpewRrLNEhI1z-123">
          <mxGeometry relative="1" as="geometry" />
        </mxCell>
        <mxCell id="uGWCk9tvpewRrLNEhI1z-122" value="&lt;span style=&quot;font-size: 18px;&quot;&gt;Exit&lt;/span&gt;" style="rounded=1;whiteSpace=wrap;html=1;" vertex="1" parent="1">
          <mxGeometry x="1615" y="1325" width="90" height="50" as="geometry" />
        </mxCell>
        <mxCell id="uGWCk9tvpewRrLNEhI1z-123" value="&lt;span style=&quot;font-size: 18px;&quot;&gt;Show CAST&lt;/span&gt;" style="rounded=1;whiteSpace=wrap;html=1;fillColor=#d5e8d4;strokeColor=#82b366;" vertex="1" parent="1">
          <mxGeometry x="1755" y="1245" width="90" height="50" as="geometry" />
        </mxCell>
        <mxCell id="uGWCk9tvpewRrLNEhI1z-124" style="edgeStyle=orthogonalEdgeStyle;rounded=0;orthogonalLoop=1;jettySize=auto;html=1;entryX=0.75;entryY=1;entryDx=0;entryDy=0;strokeWidth=2;" edge="1" parent="1" source="uGWCk9tvpewRrLNEhI1z-125" target="uGWCk9tvpewRrLNEhI1z-122">
          <mxGeometry relative="1" as="geometry">
            <Array as="points">
              <mxPoint x="830" y="1405" />
              <mxPoint x="1683" y="1405" />
            </Array>
          </mxGeometry>
        </mxCell>
        <mxCell id="uGWCk9tvpewRrLNEhI1z-125" value="&lt;font style=&quot;font-size: 18px;&quot;&gt;cancel_not_for_all&lt;/font&gt;" style="strokeWidth=2;html=1;shape=mxgraph.flowchart.decision;whiteSpace=wrap;fillColor=#d5e8d4;strokeColor=#82b366;" vertex="1" parent="1">
          <mxGeometry x="735" y="1140" width="190" height="100" as="geometry" />
        </mxCell>
        <mxCell id="uGWCk9tvpewRrLNEhI1z-126" style="edgeStyle=orthogonalEdgeStyle;rounded=0;orthogonalLoop=1;jettySize=auto;html=1;entryX=0;entryY=0.5;entryDx=0;entryDy=0;strokeWidth=2;fillColor=#d5e8d4;strokeColor=#82b366;" edge="1" parent="1" source="uGWCk9tvpewRrLNEhI1z-128" target="uGWCk9tvpewRrLNEhI1z-109">
          <mxGeometry relative="1" as="geometry" />
        </mxCell>
        <mxCell id="uGWCk9tvpewRrLNEhI1z-127" style="edgeStyle=orthogonalEdgeStyle;rounded=0;orthogonalLoop=1;jettySize=auto;html=1;entryX=0;entryY=0.5;entryDx=0;entryDy=0;strokeWidth=2;" edge="1" parent="1" source="uGWCk9tvpewRrLNEhI1z-128" target="uGWCk9tvpewRrLNEhI1z-118">
          <mxGeometry relative="1" as="geometry">
            <Array as="points">
              <mxPoint x="1100" y="1350" />
            </Array>
          </mxGeometry>
        </mxCell>
        <mxCell id="uGWCk9tvpewRrLNEhI1z-128" value="&lt;span style=&quot;font-size: 18px;&quot;&gt;partial_or_full&lt;/span&gt;" style="strokeWidth=2;html=1;shape=mxgraph.flowchart.decision;whiteSpace=wrap;fillColor=#d5e8d4;strokeColor=#82b366;" vertex="1" parent="1">
          <mxGeometry x="1005" y="1140" width="190" height="100" as="geometry" />
        </mxCell>
        <mxCell id="uGWCk9tvpewRrLNEhI1z-129" style="edgeStyle=orthogonalEdgeStyle;rounded=0;orthogonalLoop=1;jettySize=auto;html=1;entryX=0;entryY=0.5;entryDx=0;entryDy=0;entryPerimeter=0;strokeWidth=2;fillColor=#d5e8d4;strokeColor=#82b366;" edge="1" parent="1" source="uGWCk9tvpewRrLNEhI1z-107" target="uGWCk9tvpewRrLNEhI1z-125">
          <mxGeometry relative="1" as="geometry" />
        </mxCell>
        <mxCell id="uGWCk9tvpewRrLNEhI1z-130" style="edgeStyle=orthogonalEdgeStyle;rounded=0;orthogonalLoop=1;jettySize=auto;html=1;entryX=0;entryY=0.5;entryDx=0;entryDy=0;entryPerimeter=0;strokeWidth=2;fillColor=#d5e8d4;strokeColor=#82b366;" edge="1" parent="1" source="uGWCk9tvpewRrLNEhI1z-125" target="uGWCk9tvpewRrLNEhI1z-128">
          <mxGeometry relative="1" as="geometry" />
        </mxCell>
        <mxCell id="uGWCk9tvpewRrLNEhI1z-131" value="&lt;font style=&quot;font-size: 18px;&quot;&gt;True&lt;/font&gt;" style="text;html=1;align=center;verticalAlign=middle;whiteSpace=wrap;rounded=0;" vertex="1" parent="1">
          <mxGeometry x="765" y="1245" width="60" height="30" as="geometry" />
        </mxCell>
        <mxCell id="uGWCk9tvpewRrLNEhI1z-132" value="&lt;font style=&quot;font-size: 18px;&quot;&gt;False&lt;/font&gt;" style="text;html=1;align=center;verticalAlign=middle;whiteSpace=wrap;rounded=0;" vertex="1" parent="1">
          <mxGeometry x="925" y="1155" width="60" height="30" as="geometry" />
        </mxCell>
        <mxCell id="uGWCk9tvpewRrLNEhI1z-133" value="&lt;font style=&quot;font-size: 18px;&quot;&gt;FULL&lt;/font&gt;" style="text;html=1;align=center;verticalAlign=middle;whiteSpace=wrap;rounded=0;" vertex="1" parent="1">
          <mxGeometry x="1191" y="1155" width="60" height="30" as="geometry" />
        </mxCell>
        <mxCell id="uGWCk9tvpewRrLNEhI1z-134" value="&lt;span style=&quot;font-size: 18px;&quot;&gt;PARTIAL&lt;/span&gt;" style="text;html=1;align=center;verticalAlign=middle;whiteSpace=wrap;rounded=0;" vertex="1" parent="1">
          <mxGeometry x="1021" y="1245" width="60" height="30" as="geometry" />
        </mxCell>
        <mxCell id="uGWCk9tvpewRrLNEhI1z-135" value="&lt;font style=&quot;font-size: 18px;&quot;&gt;SUCCESS&lt;/font&gt;" style="text;html=1;align=center;verticalAlign=middle;whiteSpace=wrap;rounded=0;" vertex="1" parent="1">
          <mxGeometry x="1725" y="1315" width="60" height="30" as="geometry" />
        </mxCell>
        <mxCell id="uGWCk9tvpewRrLNEhI1z-136" value="&lt;span style=&quot;font-size: 18px;&quot;&gt;chat_history&lt;/span&gt;" style="text;html=1;align=center;verticalAlign=middle;whiteSpace=wrap;rounded=0;" vertex="1" parent="1">
          <mxGeometry x="355" y="1192.5" width="110" height="30" as="geometry" />
        </mxCell>
        <mxCell id="uGWCk9tvpewRrLNEhI1z-137" value="&lt;span style=&quot;font-size: 18px;&quot;&gt;flight_booking_legs&lt;/span&gt;" style="text;html=1;align=center;verticalAlign=middle;whiteSpace=wrap;rounded=0;" vertex="1" parent="1">
          <mxGeometry x="325" y="1157.5" width="170" height="30" as="geometry" />
        </mxCell>
        <mxCell id="uGWCk9tvpewRrLNEhI1z-138" style="edgeStyle=orthogonalEdgeStyle;rounded=0;orthogonalLoop=1;jettySize=auto;html=1;strokeWidth=2;fillColor=#d5e8d4;strokeColor=#82b366;" edge="1" parent="1" source="uGWCk9tvpewRrLNEhI1z-139" target="uGWCk9tvpewRrLNEhI1z-107">
          <mxGeometry relative="1" as="geometry" />
        </mxCell>
        <mxCell id="uGWCk9tvpewRrLNEhI1z-139" value="" style="rounded=1;whiteSpace=wrap;html=1;opacity=0;" vertex="1" parent="1">
          <mxGeometry x="320" y="1142.5" width="180" height="95" as="geometry" />
        </mxCell>
        <mxCell id="uGWCk9tvpewRrLNEhI1z-140" value="&lt;span style=&quot;font-size: 18px;&quot;&gt;Identify Partial&lt;/span&gt;" style="rounded=1;whiteSpace=wrap;html=1;fillColor=#d5e8d4;strokeColor=#82b366;" vertex="1" parent="1">
          <mxGeometry x="600" y="1595" width="90" height="50" as="geometry" />
        </mxCell>
        <mxCell id="uGWCk9tvpewRrLNEhI1z-141" style="edgeStyle=orthogonalEdgeStyle;rounded=0;orthogonalLoop=1;jettySize=auto;html=1;entryX=0;entryY=0.5;entryDx=0;entryDy=0;strokeWidth=2;fillColor=#d5e8d4;strokeColor=#82b366;" edge="1" parent="1" source="uGWCk9tvpewRrLNEhI1z-142" target="uGWCk9tvpewRrLNEhI1z-145">
          <mxGeometry relative="1" as="geometry" />
        </mxCell>
        <mxCell id="uGWCk9tvpewRrLNEhI1z-142" value="&lt;span style=&quot;font-size: 18px;&quot;&gt;Explain Policy&lt;/span&gt;" style="rounded=1;whiteSpace=wrap;html=1;fillColor=#d5e8d4;strokeColor=#82b366;" vertex="1" parent="1">
          <mxGeometry x="1310" y="1595" width="90" height="50" as="geometry" />
        </mxCell>
        <mxCell id="uGWCk9tvpewRrLNEhI1z-143" style="edgeStyle=orthogonalEdgeStyle;rounded=0;orthogonalLoop=1;jettySize=auto;html=1;entryX=0;entryY=0.5;entryDx=0;entryDy=0;strokeWidth=2;fillColor=#d5e8d4;strokeColor=#82b366;" edge="1" parent="1" source="uGWCk9tvpewRrLNEhI1z-145" target="uGWCk9tvpewRrLNEhI1z-147">
          <mxGeometry relative="1" as="geometry" />
        </mxCell>
        <mxCell id="uGWCk9tvpewRrLNEhI1z-144" style="edgeStyle=orthogonalEdgeStyle;rounded=0;orthogonalLoop=1;jettySize=auto;html=1;entryX=0.5;entryY=0;entryDx=0;entryDy=0;strokeWidth=2;" edge="1" parent="1" source="uGWCk9tvpewRrLNEhI1z-145" target="uGWCk9tvpewRrLNEhI1z-155">
          <mxGeometry relative="1" as="geometry">
            <Array as="points">
              <mxPoint x="1525" y="1695" />
              <mxPoint x="1695" y="1695" />
            </Array>
          </mxGeometry>
        </mxCell>
        <mxCell id="uGWCk9tvpewRrLNEhI1z-145" value="&lt;span style=&quot;font-size: 18px;&quot;&gt;Confirm Cancel&lt;/span&gt;" style="rounded=1;whiteSpace=wrap;html=1;fillColor=#d5e8d4;strokeColor=#82b366;" vertex="1" parent="1">
          <mxGeometry x="1480" y="1595" width="90" height="50" as="geometry" />
        </mxCell>
        <mxCell id="uGWCk9tvpewRrLNEhI1z-146" style="edgeStyle=orthogonalEdgeStyle;rounded=0;orthogonalLoop=1;jettySize=auto;html=1;entryX=0.5;entryY=0;entryDx=0;entryDy=0;strokeWidth=2;fillColor=#d5e8d4;strokeColor=#82b366;" edge="1" parent="1" source="uGWCk9tvpewRrLNEhI1z-147" target="uGWCk9tvpewRrLNEhI1z-156">
          <mxGeometry relative="1" as="geometry" />
        </mxCell>
        <mxCell id="uGWCk9tvpewRrLNEhI1z-147" value="&lt;span style=&quot;font-size: 18px;&quot;&gt;Process Cancel&lt;/span&gt;" style="rounded=1;whiteSpace=wrap;html=1;fillColor=#d5e8d4;strokeColor=#82b366;" vertex="1" parent="1">
          <mxGeometry x="1650" y="1595" width="90" height="50" as="geometry" />
        </mxCell>
        <mxCell id="uGWCk9tvpewRrLNEhI1z-148" style="edgeStyle=orthogonalEdgeStyle;rounded=0;orthogonalLoop=1;jettySize=auto;html=1;entryX=0;entryY=0.5;entryDx=0;entryDy=0;strokeWidth=2;" edge="1" parent="1" source="uGWCk9tvpewRrLNEhI1z-151" target="uGWCk9tvpewRrLNEhI1z-153">
          <mxGeometry relative="1" as="geometry" />
        </mxCell>
        <mxCell id="uGWCk9tvpewRrLNEhI1z-149" style="edgeStyle=orthogonalEdgeStyle;rounded=0;orthogonalLoop=1;jettySize=auto;html=1;entryX=0.5;entryY=1;entryDx=0;entryDy=0;strokeWidth=2;fillColor=#d5e8d4;strokeColor=#82b366;" edge="1" parent="1" source="uGWCk9tvpewRrLNEhI1z-151" target="uGWCk9tvpewRrLNEhI1z-142">
          <mxGeometry relative="1" as="geometry" />
        </mxCell>
        <mxCell id="uGWCk9tvpewRrLNEhI1z-150" style="edgeStyle=orthogonalEdgeStyle;rounded=0;orthogonalLoop=1;jettySize=auto;html=1;entryX=0.5;entryY=1;entryDx=0;entryDy=0;strokeWidth=2;" edge="1" parent="1" source="uGWCk9tvpewRrLNEhI1z-151" target="uGWCk9tvpewRrLNEhI1z-155">
          <mxGeometry relative="1" as="geometry">
            <Array as="points">
              <mxPoint x="1355" y="1825" />
              <mxPoint x="1695" y="1825" />
            </Array>
          </mxGeometry>
        </mxCell>
        <mxCell id="uGWCk9tvpewRrLNEhI1z-151" value="&lt;span style=&quot;font-size: 18px;&quot;&gt;Confirm Leg&lt;/span&gt;" style="rounded=1;whiteSpace=wrap;html=1;fillColor=#d5e8d4;strokeColor=#82b366;" vertex="1" parent="1">
          <mxGeometry x="1310" y="1755" width="90" height="50" as="geometry" />
        </mxCell>
        <mxCell id="uGWCk9tvpewRrLNEhI1z-152" style="edgeStyle=orthogonalEdgeStyle;rounded=0;orthogonalLoop=1;jettySize=auto;html=1;entryX=0;entryY=0.5;entryDx=0;entryDy=0;strokeWidth=2;" edge="1" parent="1" source="uGWCk9tvpewRrLNEhI1z-153" target="uGWCk9tvpewRrLNEhI1z-155">
          <mxGeometry relative="1" as="geometry" />
        </mxCell>
        <mxCell id="uGWCk9tvpewRrLNEhI1z-153" value="&lt;span style=&quot;font-size: 18px;&quot;&gt;Agent&lt;/span&gt;" style="rounded=1;whiteSpace=wrap;html=1;" vertex="1" parent="1">
          <mxGeometry x="1480" y="1755" width="90" height="50" as="geometry" />
        </mxCell>
        <mxCell id="uGWCk9tvpewRrLNEhI1z-154" style="edgeStyle=orthogonalEdgeStyle;rounded=0;orthogonalLoop=1;jettySize=auto;html=1;entryX=0.5;entryY=1;entryDx=0;entryDy=0;startArrow=classic;startFill=1;endArrow=none;endFill=0;strokeWidth=2;fillColor=#d5e8d4;strokeColor=#82b366;" edge="1" parent="1" source="uGWCk9tvpewRrLNEhI1z-155" target="uGWCk9tvpewRrLNEhI1z-156">
          <mxGeometry relative="1" as="geometry" />
        </mxCell>
        <mxCell id="uGWCk9tvpewRrLNEhI1z-155" value="&lt;span style=&quot;font-size: 18px;&quot;&gt;Exit&lt;/span&gt;" style="rounded=1;whiteSpace=wrap;html=1;" vertex="1" parent="1">
          <mxGeometry x="1650" y="1755" width="90" height="50" as="geometry" />
        </mxCell>
        <mxCell id="uGWCk9tvpewRrLNEhI1z-156" value="&lt;span style=&quot;font-size: 18px;&quot;&gt;Show CAST&lt;/span&gt;" style="rounded=1;whiteSpace=wrap;html=1;fillColor=#d5e8d4;strokeColor=#82b366;" vertex="1" parent="1">
          <mxGeometry x="1790" y="1675" width="90" height="50" as="geometry" />
        </mxCell>
        <mxCell id="uGWCk9tvpewRrLNEhI1z-157" style="edgeStyle=orthogonalEdgeStyle;rounded=0;orthogonalLoop=1;jettySize=auto;html=1;entryX=0.75;entryY=1;entryDx=0;entryDy=0;strokeWidth=2;" edge="1" parent="1" source="uGWCk9tvpewRrLNEhI1z-158" target="uGWCk9tvpewRrLNEhI1z-155">
          <mxGeometry relative="1" as="geometry">
            <Array as="points">
              <mxPoint x="865" y="1835" />
              <mxPoint x="1718" y="1835" />
            </Array>
          </mxGeometry>
        </mxCell>
        <mxCell id="uGWCk9tvpewRrLNEhI1z-158" value="&lt;font style=&quot;font-size: 18px;&quot;&gt;cancel_not_for_all&lt;/font&gt;" style="strokeWidth=2;html=1;shape=mxgraph.flowchart.decision;whiteSpace=wrap;fillColor=#d5e8d4;strokeColor=#82b366;" vertex="1" parent="1">
          <mxGeometry x="770" y="1570" width="190" height="100" as="geometry" />
        </mxCell>
        <mxCell id="uGWCk9tvpewRrLNEhI1z-159" style="edgeStyle=orthogonalEdgeStyle;rounded=0;orthogonalLoop=1;jettySize=auto;html=1;entryX=0;entryY=0.5;entryDx=0;entryDy=0;strokeWidth=2;" edge="1" parent="1" source="uGWCk9tvpewRrLNEhI1z-161" target="uGWCk9tvpewRrLNEhI1z-142">
          <mxGeometry relative="1" as="geometry" />
        </mxCell>
        <mxCell id="uGWCk9tvpewRrLNEhI1z-160" style="edgeStyle=orthogonalEdgeStyle;rounded=0;orthogonalLoop=1;jettySize=auto;html=1;entryX=0;entryY=0.5;entryDx=0;entryDy=0;strokeWidth=2;fillColor=#d5e8d4;strokeColor=#82b366;" edge="1" parent="1" source="uGWCk9tvpewRrLNEhI1z-161" target="uGWCk9tvpewRrLNEhI1z-151">
          <mxGeometry relative="1" as="geometry">
            <Array as="points">
              <mxPoint x="1135" y="1780" />
            </Array>
          </mxGeometry>
        </mxCell>
        <mxCell id="uGWCk9tvpewRrLNEhI1z-161" value="&lt;span style=&quot;font-size: 18px;&quot;&gt;partial_or_full&lt;/span&gt;" style="strokeWidth=2;html=1;shape=mxgraph.flowchart.decision;whiteSpace=wrap;fillColor=#d5e8d4;strokeColor=#82b366;" vertex="1" parent="1">
          <mxGeometry x="1040" y="1570" width="190" height="100" as="geometry" />
        </mxCell>
        <mxCell id="uGWCk9tvpewRrLNEhI1z-162" style="edgeStyle=orthogonalEdgeStyle;rounded=0;orthogonalLoop=1;jettySize=auto;html=1;entryX=0;entryY=0.5;entryDx=0;entryDy=0;entryPerimeter=0;strokeWidth=2;fillColor=#d5e8d4;strokeColor=#82b366;" edge="1" parent="1" source="uGWCk9tvpewRrLNEhI1z-140" target="uGWCk9tvpewRrLNEhI1z-158">
          <mxGeometry relative="1" as="geometry" />
        </mxCell>
        <mxCell id="uGWCk9tvpewRrLNEhI1z-163" style="edgeStyle=orthogonalEdgeStyle;rounded=0;orthogonalLoop=1;jettySize=auto;html=1;entryX=0;entryY=0.5;entryDx=0;entryDy=0;entryPerimeter=0;strokeWidth=2;fillColor=#d5e8d4;strokeColor=#82b366;" edge="1" parent="1" source="uGWCk9tvpewRrLNEhI1z-158" target="uGWCk9tvpewRrLNEhI1z-161">
          <mxGeometry relative="1" as="geometry" />
        </mxCell>
        <mxCell id="uGWCk9tvpewRrLNEhI1z-164" value="&lt;font style=&quot;font-size: 18px;&quot;&gt;True&lt;/font&gt;" style="text;html=1;align=center;verticalAlign=middle;whiteSpace=wrap;rounded=0;" vertex="1" parent="1">
          <mxGeometry x="800" y="1675" width="60" height="30" as="geometry" />
        </mxCell>
        <mxCell id="uGWCk9tvpewRrLNEhI1z-165" value="&lt;font style=&quot;font-size: 18px;&quot;&gt;False&lt;/font&gt;" style="text;html=1;align=center;verticalAlign=middle;whiteSpace=wrap;rounded=0;" vertex="1" parent="1">
          <mxGeometry x="960" y="1585" width="60" height="30" as="geometry" />
        </mxCell>
        <mxCell id="uGWCk9tvpewRrLNEhI1z-166" value="&lt;font style=&quot;font-size: 18px;&quot;&gt;FULL&lt;/font&gt;" style="text;html=1;align=center;verticalAlign=middle;whiteSpace=wrap;rounded=0;" vertex="1" parent="1">
          <mxGeometry x="1226" y="1585" width="60" height="30" as="geometry" />
        </mxCell>
        <mxCell id="uGWCk9tvpewRrLNEhI1z-167" value="&lt;span style=&quot;font-size: 18px;&quot;&gt;PARTIAL&lt;/span&gt;" style="text;html=1;align=center;verticalAlign=middle;whiteSpace=wrap;rounded=0;" vertex="1" parent="1">
          <mxGeometry x="1056" y="1675" width="60" height="30" as="geometry" />
        </mxCell>
        <mxCell id="uGWCk9tvpewRrLNEhI1z-168" value="&lt;font style=&quot;font-size: 18px;&quot;&gt;SUCCESS&lt;/font&gt;" style="text;html=1;align=center;verticalAlign=middle;whiteSpace=wrap;rounded=0;" vertex="1" parent="1">
          <mxGeometry x="1760" y="1745" width="60" height="30" as="geometry" />
        </mxCell>
        <mxCell id="uGWCk9tvpewRrLNEhI1z-169" value="&lt;span style=&quot;font-size: 18px;&quot;&gt;chat_history&lt;/span&gt;" style="text;html=1;align=center;verticalAlign=middle;whiteSpace=wrap;rounded=0;" vertex="1" parent="1">
          <mxGeometry x="390" y="1622.5" width="110" height="30" as="geometry" />
        </mxCell>
        <mxCell id="uGWCk9tvpewRrLNEhI1z-170" value="&lt;span style=&quot;font-size: 18px;&quot;&gt;flight_booking_legs&lt;/span&gt;" style="text;html=1;align=center;verticalAlign=middle;whiteSpace=wrap;rounded=0;" vertex="1" parent="1">
          <mxGeometry x="360" y="1587.5" width="170" height="30" as="geometry" />
        </mxCell>
        <mxCell id="uGWCk9tvpewRrLNEhI1z-171" style="edgeStyle=orthogonalEdgeStyle;rounded=0;orthogonalLoop=1;jettySize=auto;html=1;strokeWidth=2;fillColor=#d5e8d4;strokeColor=#82b366;" edge="1" parent="1" source="uGWCk9tvpewRrLNEhI1z-172" target="uGWCk9tvpewRrLNEhI1z-140">
          <mxGeometry relative="1" as="geometry" />
        </mxCell>
        <mxCell id="uGWCk9tvpewRrLNEhI1z-172" value="" style="rounded=1;whiteSpace=wrap;html=1;opacity=0;" vertex="1" parent="1">
          <mxGeometry x="355" y="1572.5" width="180" height="95" as="geometry" />
        </mxCell>
        <mxCell id="uGWCk9tvpewRrLNEhI1z-173" value="&lt;span style=&quot;font-size: 18px;&quot;&gt;Identify Partial&lt;/span&gt;" style="rounded=1;whiteSpace=wrap;html=1;fillColor=#d5e8d4;strokeColor=#82b366;" vertex="1" parent="1">
          <mxGeometry x="600" y="2135" width="90" height="50" as="geometry" />
        </mxCell>
        <mxCell id="uGWCk9tvpewRrLNEhI1z-174" style="edgeStyle=orthogonalEdgeStyle;rounded=0;orthogonalLoop=1;jettySize=auto;html=1;entryX=0;entryY=0.5;entryDx=0;entryDy=0;strokeWidth=2;" edge="1" parent="1" source="uGWCk9tvpewRrLNEhI1z-175" target="uGWCk9tvpewRrLNEhI1z-178">
          <mxGeometry relative="1" as="geometry" />
        </mxCell>
        <mxCell id="uGWCk9tvpewRrLNEhI1z-175" value="&lt;span style=&quot;font-size: 18px;&quot;&gt;Explain Policy&lt;/span&gt;" style="rounded=1;whiteSpace=wrap;html=1;" vertex="1" parent="1">
          <mxGeometry x="1310" y="2135" width="90" height="50" as="geometry" />
        </mxCell>
        <mxCell id="uGWCk9tvpewRrLNEhI1z-176" style="edgeStyle=orthogonalEdgeStyle;rounded=0;orthogonalLoop=1;jettySize=auto;html=1;entryX=0;entryY=0.5;entryDx=0;entryDy=0;strokeWidth=2;" edge="1" parent="1" source="uGWCk9tvpewRrLNEhI1z-178" target="uGWCk9tvpewRrLNEhI1z-180">
          <mxGeometry relative="1" as="geometry" />
        </mxCell>
        <mxCell id="uGWCk9tvpewRrLNEhI1z-177" style="edgeStyle=orthogonalEdgeStyle;rounded=0;orthogonalLoop=1;jettySize=auto;html=1;entryX=0.5;entryY=0;entryDx=0;entryDy=0;strokeWidth=2;" edge="1" parent="1" source="uGWCk9tvpewRrLNEhI1z-178" target="uGWCk9tvpewRrLNEhI1z-188">
          <mxGeometry relative="1" as="geometry">
            <Array as="points">
              <mxPoint x="1525" y="2235" />
              <mxPoint x="1695" y="2235" />
            </Array>
          </mxGeometry>
        </mxCell>
        <mxCell id="uGWCk9tvpewRrLNEhI1z-178" value="&lt;span style=&quot;font-size: 18px;&quot;&gt;Confirm Cancel&lt;/span&gt;" style="rounded=1;whiteSpace=wrap;html=1;" vertex="1" parent="1">
          <mxGeometry x="1480" y="2135" width="90" height="50" as="geometry" />
        </mxCell>
        <mxCell id="uGWCk9tvpewRrLNEhI1z-179" style="edgeStyle=orthogonalEdgeStyle;rounded=0;orthogonalLoop=1;jettySize=auto;html=1;entryX=0.5;entryY=0;entryDx=0;entryDy=0;strokeWidth=2;" edge="1" parent="1" source="uGWCk9tvpewRrLNEhI1z-180" target="uGWCk9tvpewRrLNEhI1z-189">
          <mxGeometry relative="1" as="geometry" />
        </mxCell>
        <mxCell id="uGWCk9tvpewRrLNEhI1z-180" value="&lt;span style=&quot;font-size: 18px;&quot;&gt;Process Cancel&lt;/span&gt;" style="rounded=1;whiteSpace=wrap;html=1;" vertex="1" parent="1">
          <mxGeometry x="1650" y="2135" width="90" height="50" as="geometry" />
        </mxCell>
        <mxCell id="uGWCk9tvpewRrLNEhI1z-181" style="edgeStyle=orthogonalEdgeStyle;rounded=0;orthogonalLoop=1;jettySize=auto;html=1;entryX=0;entryY=0.5;entryDx=0;entryDy=0;strokeWidth=2;" edge="1" parent="1" source="uGWCk9tvpewRrLNEhI1z-184" target="uGWCk9tvpewRrLNEhI1z-186">
          <mxGeometry relative="1" as="geometry" />
        </mxCell>
        <mxCell id="uGWCk9tvpewRrLNEhI1z-182" style="edgeStyle=orthogonalEdgeStyle;rounded=0;orthogonalLoop=1;jettySize=auto;html=1;entryX=0.5;entryY=1;entryDx=0;entryDy=0;strokeWidth=2;" edge="1" parent="1" source="uGWCk9tvpewRrLNEhI1z-184" target="uGWCk9tvpewRrLNEhI1z-175">
          <mxGeometry relative="1" as="geometry" />
        </mxCell>
        <mxCell id="uGWCk9tvpewRrLNEhI1z-183" style="edgeStyle=orthogonalEdgeStyle;rounded=0;orthogonalLoop=1;jettySize=auto;html=1;entryX=0.5;entryY=1;entryDx=0;entryDy=0;strokeWidth=2;" edge="1" parent="1" source="uGWCk9tvpewRrLNEhI1z-184" target="uGWCk9tvpewRrLNEhI1z-188">
          <mxGeometry relative="1" as="geometry">
            <Array as="points">
              <mxPoint x="1355" y="2365" />
              <mxPoint x="1695" y="2365" />
            </Array>
          </mxGeometry>
        </mxCell>
        <mxCell id="uGWCk9tvpewRrLNEhI1z-184" value="&lt;span style=&quot;font-size: 18px;&quot;&gt;Confirm Leg&lt;/span&gt;" style="rounded=1;whiteSpace=wrap;html=1;" vertex="1" parent="1">
          <mxGeometry x="1310" y="2295" width="90" height="50" as="geometry" />
        </mxCell>
        <mxCell id="uGWCk9tvpewRrLNEhI1z-185" style="edgeStyle=orthogonalEdgeStyle;rounded=0;orthogonalLoop=1;jettySize=auto;html=1;entryX=0;entryY=0.5;entryDx=0;entryDy=0;strokeWidth=2;" edge="1" parent="1" source="uGWCk9tvpewRrLNEhI1z-186" target="uGWCk9tvpewRrLNEhI1z-188">
          <mxGeometry relative="1" as="geometry" />
        </mxCell>
        <mxCell id="uGWCk9tvpewRrLNEhI1z-186" value="&lt;span style=&quot;font-size: 18px;&quot;&gt;Agent&lt;/span&gt;" style="rounded=1;whiteSpace=wrap;html=1;" vertex="1" parent="1">
          <mxGeometry x="1480" y="2295" width="90" height="50" as="geometry" />
        </mxCell>
        <mxCell id="uGWCk9tvpewRrLNEhI1z-187" style="edgeStyle=orthogonalEdgeStyle;rounded=0;orthogonalLoop=1;jettySize=auto;html=1;entryX=0.5;entryY=1;entryDx=0;entryDy=0;startArrow=classic;startFill=1;endArrow=none;endFill=0;strokeWidth=2;" edge="1" parent="1" source="uGWCk9tvpewRrLNEhI1z-188" target="uGWCk9tvpewRrLNEhI1z-189">
          <mxGeometry relative="1" as="geometry" />
        </mxCell>
        <mxCell id="uGWCk9tvpewRrLNEhI1z-188" value="&lt;span style=&quot;font-size: 18px;&quot;&gt;Exit&lt;/span&gt;" style="rounded=1;whiteSpace=wrap;html=1;" vertex="1" parent="1">
          <mxGeometry x="1650" y="2295" width="90" height="50" as="geometry" />
        </mxCell>
        <mxCell id="uGWCk9tvpewRrLNEhI1z-189" value="&lt;span style=&quot;font-size: 18px;&quot;&gt;Show CAST&lt;/span&gt;" style="rounded=1;whiteSpace=wrap;html=1;" vertex="1" parent="1">
          <mxGeometry x="1790" y="2215" width="90" height="50" as="geometry" />
        </mxCell>
        <mxCell id="uGWCk9tvpewRrLNEhI1z-190" style="edgeStyle=orthogonalEdgeStyle;rounded=0;orthogonalLoop=1;jettySize=auto;html=1;entryX=0.75;entryY=1;entryDx=0;entryDy=0;strokeWidth=2;fillColor=#d5e8d4;strokeColor=#82b366;" edge="1" parent="1" source="uGWCk9tvpewRrLNEhI1z-191" target="uGWCk9tvpewRrLNEhI1z-188">
          <mxGeometry relative="1" as="geometry">
            <Array as="points">
              <mxPoint x="865" y="2375" />
              <mxPoint x="1718" y="2375" />
            </Array>
          </mxGeometry>
        </mxCell>
        <mxCell id="uGWCk9tvpewRrLNEhI1z-191" value="&lt;font style=&quot;font-size: 18px;&quot;&gt;cancel_not_for_all&lt;/font&gt;" style="strokeWidth=2;html=1;shape=mxgraph.flowchart.decision;whiteSpace=wrap;fillColor=#d5e8d4;strokeColor=#82b366;" vertex="1" parent="1">
          <mxGeometry x="770" y="2110" width="190" height="100" as="geometry" />
        </mxCell>
        <mxCell id="uGWCk9tvpewRrLNEhI1z-192" style="edgeStyle=orthogonalEdgeStyle;rounded=0;orthogonalLoop=1;jettySize=auto;html=1;entryX=0;entryY=0.5;entryDx=0;entryDy=0;strokeWidth=2;" edge="1" parent="1" source="uGWCk9tvpewRrLNEhI1z-194" target="uGWCk9tvpewRrLNEhI1z-175">
          <mxGeometry relative="1" as="geometry" />
        </mxCell>
        <mxCell id="uGWCk9tvpewRrLNEhI1z-193" style="edgeStyle=orthogonalEdgeStyle;rounded=0;orthogonalLoop=1;jettySize=auto;html=1;entryX=0;entryY=0.5;entryDx=0;entryDy=0;strokeWidth=2;" edge="1" parent="1" source="uGWCk9tvpewRrLNEhI1z-194" target="uGWCk9tvpewRrLNEhI1z-184">
          <mxGeometry relative="1" as="geometry">
            <Array as="points">
              <mxPoint x="1135" y="2320" />
            </Array>
          </mxGeometry>
        </mxCell>
        <mxCell id="uGWCk9tvpewRrLNEhI1z-194" value="&lt;span style=&quot;font-size: 18px;&quot;&gt;partial_or_full&lt;/span&gt;" style="strokeWidth=2;html=1;shape=mxgraph.flowchart.decision;whiteSpace=wrap;" vertex="1" parent="1">
          <mxGeometry x="1040" y="2110" width="190" height="100" as="geometry" />
        </mxCell>
        <mxCell id="uGWCk9tvpewRrLNEhI1z-195" style="edgeStyle=orthogonalEdgeStyle;rounded=0;orthogonalLoop=1;jettySize=auto;html=1;entryX=0;entryY=0.5;entryDx=0;entryDy=0;entryPerimeter=0;strokeWidth=2;fillColor=#d5e8d4;strokeColor=#82b366;" edge="1" parent="1" source="uGWCk9tvpewRrLNEhI1z-173" target="uGWCk9tvpewRrLNEhI1z-191">
          <mxGeometry relative="1" as="geometry" />
        </mxCell>
        <mxCell id="uGWCk9tvpewRrLNEhI1z-196" style="edgeStyle=orthogonalEdgeStyle;rounded=0;orthogonalLoop=1;jettySize=auto;html=1;entryX=0;entryY=0.5;entryDx=0;entryDy=0;entryPerimeter=0;strokeWidth=2;" edge="1" parent="1" source="uGWCk9tvpewRrLNEhI1z-191" target="uGWCk9tvpewRrLNEhI1z-194">
          <mxGeometry relative="1" as="geometry" />
        </mxCell>
        <mxCell id="uGWCk9tvpewRrLNEhI1z-197" value="&lt;font style=&quot;font-size: 18px;&quot;&gt;True&lt;/font&gt;" style="text;html=1;align=center;verticalAlign=middle;whiteSpace=wrap;rounded=0;" vertex="1" parent="1">
          <mxGeometry x="800" y="2215" width="60" height="30" as="geometry" />
        </mxCell>
        <mxCell id="uGWCk9tvpewRrLNEhI1z-198" value="&lt;font style=&quot;font-size: 18px;&quot;&gt;False&lt;/font&gt;" style="text;html=1;align=center;verticalAlign=middle;whiteSpace=wrap;rounded=0;" vertex="1" parent="1">
          <mxGeometry x="960" y="2125" width="60" height="30" as="geometry" />
        </mxCell>
        <mxCell id="uGWCk9tvpewRrLNEhI1z-199" value="&lt;font style=&quot;font-size: 18px;&quot;&gt;FULL&lt;/font&gt;" style="text;html=1;align=center;verticalAlign=middle;whiteSpace=wrap;rounded=0;" vertex="1" parent="1">
          <mxGeometry x="1226" y="2125" width="60" height="30" as="geometry" />
        </mxCell>
        <mxCell id="uGWCk9tvpewRrLNEhI1z-200" value="&lt;span style=&quot;font-size: 18px;&quot;&gt;PARTIAL&lt;/span&gt;" style="text;html=1;align=center;verticalAlign=middle;whiteSpace=wrap;rounded=0;" vertex="1" parent="1">
          <mxGeometry x="1056" y="2215" width="60" height="30" as="geometry" />
        </mxCell>
        <mxCell id="uGWCk9tvpewRrLNEhI1z-201" value="&lt;font style=&quot;font-size: 18px;&quot;&gt;SUCCESS&lt;/font&gt;" style="text;html=1;align=center;verticalAlign=middle;whiteSpace=wrap;rounded=0;" vertex="1" parent="1">
          <mxGeometry x="1760" y="2285" width="60" height="30" as="geometry" />
        </mxCell>
        <mxCell id="uGWCk9tvpewRrLNEhI1z-202" value="&lt;span style=&quot;font-size: 18px;&quot;&gt;chat_history&lt;/span&gt;" style="text;html=1;align=center;verticalAlign=middle;whiteSpace=wrap;rounded=0;" vertex="1" parent="1">
          <mxGeometry x="390" y="2162.5" width="110" height="30" as="geometry" />
        </mxCell>
        <mxCell id="uGWCk9tvpewRrLNEhI1z-203" value="&lt;span style=&quot;font-size: 18px;&quot;&gt;flight_booking_legs&lt;/span&gt;" style="text;html=1;align=center;verticalAlign=middle;whiteSpace=wrap;rounded=0;" vertex="1" parent="1">
          <mxGeometry x="360" y="2127.5" width="170" height="30" as="geometry" />
        </mxCell>
        <mxCell id="uGWCk9tvpewRrLNEhI1z-204" style="edgeStyle=orthogonalEdgeStyle;rounded=0;orthogonalLoop=1;jettySize=auto;html=1;strokeWidth=2;" edge="1" parent="1" source="uGWCk9tvpewRrLNEhI1z-205" target="uGWCk9tvpewRrLNEhI1z-173">
          <mxGeometry relative="1" as="geometry" />
        </mxCell>
        <mxCell id="uGWCk9tvpewRrLNEhI1z-205" value="" style="rounded=1;whiteSpace=wrap;html=1;opacity=0;" vertex="1" parent="1">
          <mxGeometry x="355" y="2112.5" width="180" height="95" as="geometry" />
        </mxCell>
      </root>
    </mxGraphModel>
  </diagram>
</mxfile>
